<svg xmlns="http://www.w3.org/2000/svg" width="431.985" height="431.985" viewBox="0 0 431.985 431.985"><path fill="#FED42A" d="M423.257 51.83a6 6 0 0 0-10.465-1.28c-7.58 10.63-17.53 14.172-29.053 18.275-9.293 3.31-18.902 6.73-29.287 14.186-14.687 10.545-21.405 24.918-18.055 38.54l-.358.46c-6.133-8.897-12.806-17.126-19.848-24.474-32.947-34.378-78.984-55.046-126.31-56.703-2.086-.073-4.205-.11-6.3-.11-52.845 0-103.427 23.624-138.774 64.813C9.646 146.512-5.94 199.853 2.05 251.882c.67 4.35 1.505 8.743 2.488 13.063 12.996 57.202 46.19 100.717 91.07 119.383 11.062 4.602 22.22 6.934 33.162 6.934 27.183 0 50.926-14.54 65.143-39.89 5.404-9.645 8.89-19.62 10.36-29.65.866-5.92.274-11.835-.3-17.567-.59-5.9-1.15-11.476-.256-17.09 2.047-12.87 11.036-20.553 24.047-20.553 3.7 0 7.483.61 11.26 1.812-4.422 8.11-8.438 15.854-11.947 23.032-7.437 15.212-12.567 27.81-15.252 37.44-1.655 5.94-6.052 21.722 4.67 29.164 3.405 2.363 7.722 3.197 12.215 2.36 4.05-.75 16.37-3.04 51.378-42.895 9.396-10.695 19.52-23.072 30.104-36.794 27.168-9.15 48.31-31.92 53.903-58.086 1.4-6.54 1.984-13.54 1.735-20.812 10.172-15.72 19.094-30.388 28.072-46.156.172-.304.342-.628.51-.96 13.03-3.57 24.254-13.71 30.842-27.89 9.618-20.698 8.91-47.298-1.997-74.897zm-146.872 98.004c-4.713 7.485-12.814 11.954-21.673 11.954a25.5 25.5 0 0 1-13.605-3.937c-5.782-3.64-9.803-9.316-11.316-15.98s-.344-13.517 3.3-19.3c4.713-7.485 12.815-11.954 21.674-11.954 4.81 0 9.515 1.36 13.604 3.938 5.782 3.64 9.802 9.315 11.316 15.98 1.513 6.663.342 13.517-3.3 19.3zm33.207 46.353c12.934-19.057 26.612-38 39.604-54.85a70.137 70.137 0 0 0 7.012 5.53c4.227 2.933 8.648 5.2 13.164 6.754-10.97 18.76-22.763 37.343-37.043 58.376-23.464 34.57-47.86 66.684-68.696 90.424-11.638 13.26-21.823 23.498-29.67 29.84 3.028-9.69 8.817-22.99 16.874-38.747 14.407-28.177 35.273-62.74 58.754-97.326zm-227.086-.164a25.5 25.5 0 0 1-13.607-3.938c-5.783-3.64-9.802-9.314-11.316-15.98-1.514-6.663-.342-13.518 3.3-19.3 4.712-7.485 12.814-11.954 21.672-11.954 4.812 0 9.517 1.362 13.607 3.94 11.936 7.517 15.532 23.344 8.02 35.278-4.717 7.486-12.82 11.955-21.677 11.955zm-26.818 56.335c4.713-7.486 12.814-11.955 21.673-11.955a25.51 25.51 0 0 1 13.607 3.938c5.782 3.642 9.8 9.316 11.315 15.98 1.515 6.662.343 13.516-3.3 19.3-4.712 7.484-12.814 11.954-21.672 11.954a25.51 25.51 0 0 1-13.61-3.938c-5.78-3.642-9.8-9.315-11.312-15.98-1.512-6.66-.34-13.516 3.3-19.298zm81.932-151.944c4.713-7.485 12.815-11.954 21.673-11.954a25.5 25.5 0 0 1 13.604 3.937c11.937 7.516 15.533 23.344 8.02 35.28-4.716 7.486-12.818 11.955-21.676 11.955-4.81 0-9.514-1.36-13.604-3.938-5.78-3.64-9.8-9.314-11.313-15.98-1.516-6.662-.344-13.516 3.297-19.3z"/></svg>